<svg xmlns="http://www.w3.org/2000/svg" xmlns:xlink="http://www.w3.org/1999/xlink" width="70" height="70" viewBox="0 0 70 70">
  <defs>
    <clipPath id="clip-path">
      <rect x="-16" y="-21" width="70" height="70" fill="none"/>
    </clipPath>
  </defs>
  <g id="ksIcon_Discord" transform="translate(16 21)" clip-path="url(#clip-path)" style="isolation: isolate">
    <path id="ksIcon_Discord-2" data-name="ksIcon_Discord" d="M32.168,2.322A32.078,32.078,0,0,0,24.434,0a.121.121,0,0,0-.072.008.118.118,0,0,0-.053.048,21.039,21.039,0,0,0-.963,1.913,29.916,29.916,0,0,0-8.687,0A19.079,19.079,0,0,0,13.682.061a.12.12,0,0,0-.053-.049A.124.124,0,0,0,13.557,0,32.053,32.053,0,0,0,5.823,2.321a.11.11,0,0,0-.051.042A30.213,30.213,0,0,0,.158,23.273a.124.124,0,0,0,.016.048.126.126,0,0,0,.033.038A31.943,31.943,0,0,0,9.7,27.993a.126.126,0,0,0,.073,0,.124.124,0,0,0,.06-.04A21.446,21.446,0,0,0,11.769,24.9a.114.114,0,0,0-.023-.136.116.116,0,0,0-.042-.026,21.08,21.08,0,0,1-2.964-1.366.118.118,0,0,1-.042-.04.115.115,0,0,1-.007-.11.117.117,0,0,1,.036-.045c.2-.145.4-.3.589-.446a.121.121,0,0,1,.123-.016,23.179,23.179,0,0,0,19.1,0,.12.12,0,0,1,.125.014c.19.152.388.3.589.448a.116.116,0,0,1,.037.044.115.115,0,0,1-.005.11.118.118,0,0,1-.041.04,19.712,19.712,0,0,1-2.965,1.364.119.119,0,0,0-.042.026.118.118,0,0,0-.028.041.115.115,0,0,0,.005.1,24.339,24.339,0,0,0,1.939,3.052.122.122,0,0,0,.059.042.125.125,0,0,0,.074,0,31.836,31.836,0,0,0,9.5-4.637.119.119,0,0,0,.035-.037.117.117,0,0,0,.016-.047A30.03,30.03,0,0,0,32.217,2.366.094.094,0,0,0,32.168,2.322ZM12.7,19.1a3.58,3.58,0,0,1-3.415-3.7A3.56,3.56,0,0,1,12.7,11.7a3.54,3.54,0,0,1,3.415,3.7A3.56,3.56,0,0,1,12.7,19.1Zm12.627,0a3.579,3.579,0,0,1-3.415-3.7,3.559,3.559,0,0,1,3.415-3.7,3.54,3.54,0,0,1,3.415,3.7A3.549,3.549,0,0,1,25.325,19.1Z" fill="#fff"/>
  </g>
</svg>
