<svg xmlns="http://www.w3.org/2000/svg" xmlns:xlink="http://www.w3.org/1999/xlink" width="70" height="70" viewBox="0 0 70 70"><defs><clipPath id="a"><rect x="-19" y="-22" width="70" height="70" fill="none"/></clipPath></defs><g transform="translate(19 22)" clip-path="url(#a)" style="isolation:isolate"><path d="M21.6,8.188a8.974,8.974,0,0,1,0,9.625M2,17.069V8.93A1.416,1.416,0,0,1,3.4,7.5H8.42a1.393,1.393,0,0,0,.539-.11,1.373,1.373,0,0,0,.451-.309l4.2-4.659A1.4,1.4,0,0,1,16,3.434V22.566a1.4,1.4,0,0,1-2.4,1L9.412,18.932a1.372,1.372,0,0,0-.455-.318,1.394,1.394,0,0,0-.547-.114H3.4A1.416,1.416,0,0,1,2,17.069Z" transform="translate(-0.5 -0.461)" fill="none" stroke="#fff" stroke-linecap="round" stroke-linejoin="round" stroke-width="3"/></g></svg>