<svg xmlns="http://www.w3.org/2000/svg" xmlns:xlink="http://www.w3.org/1999/xlink" width="70" height="70" viewBox="0 0 70 70">
  <defs>
    <clipPath id="clip-path">
      <rect x="-16" y="-18" width="70" height="70" fill="none"/>
    </clipPath>
  </defs>
  <g id="ksIcon_Website" transform="translate(16 18)" clip-path="url(#clip-path)" style="isolation: isolate">
    <g id="ksIcon_Website-2" data-name="ksIcon_Website" transform="translate(-0.181 0.367)">
      <path id="Path_27" data-name="Path 27" d="M31.75,8.5a15.318,15.318,0,0,0-25.473,0" fill="none" stroke="#fff" stroke-linecap="round" stroke-linejoin="round" stroke-width="3"/>
      <path id="Path_28" data-name="Path 28" d="M18.15,1.7a28.882,28.882,0,0,0-3.1,6.8m4.8-6.8a28.878,28.878,0,0,1,3.108,6.807M31.75,25.5a15.318,15.318,0,0,1-25.473,0" fill="none" stroke="#fff" stroke-linecap="round" stroke-linejoin="round" stroke-width="3"/>
      <path id="Path_29" data-name="Path 29" d="M18.15,32.3a28.882,28.882,0,0,1-3.1-6.8m4.8,6.8a28.883,28.883,0,0,0,3.108-6.807M2,13.6l1.7,6.8,2.55-6.8L8.8,20.4l1.7-6.8m17,0,1.7,6.8,2.55-6.8,2.55,6.8L36,13.6m-21.25,0,1.7,6.8L19,13.6l2.55,6.8,1.7-6.8" fill="none" stroke="#fff" stroke-linecap="round" stroke-linejoin="round" stroke-width="3"/>
    </g>
  </g>
</svg>
